<!DOCTYPE svg PUBLIC "-//W3C//DTD SVG 20010904//EN" "http://www.w3.org/TR/2001/REC-SVG-20010904/DTD/svg10.dtd">
<svg version="1.0" xmlns="http://www.w3.org/2000/svg" width="727px" height="478px" viewBox="0 0 7270 4780" preserveAspectRatio="xMidYMid meet">
<g id="layer101" fill="#23527c" stroke="none">
 <path d="M4969 4707 c-118 -49 -184 -110 -241 -219 -32 -61 -33 -67 -33 -183 0 -117 1 -122 34 -190 80 -162 235 -253 417 -243 175 9 326 126 384 297 68 202 -28 425 -225 522 -64 31 -78 34 -175 37 -91 2 -112 -1 -161 -21z"/>
 <path d="M2870 4291 c-84 -27 -133 -56 -187 -108 -59 -58 -109 -155 -124 -242 -40 -223 128 -454 358 -491 32 -6 228 -10 436 -10 417 0 419 0 457 -63 19 -31 20 -55 20 -642 0 -375 4 -627 11 -654 27 -118 122 -242 225 -293 245 -123 533 0 615 263 18 57 19 102 19 772 0 825 0 821 -90 1002 -87 176 -213 304 -385 390 -177 89 -177 89 -775 92 -483 2 -529 1 -580 -16z"/>
 <path d="M5818 3870 c-267 -46 -509 -235 -627 -492 -81 -174 -76 -88 -76 -1403 l0 -1170 23 -60 c43 -115 138 -212 252 -257 79 -32 231 -32 313 1 109 43 203 137 249 251 l23 55 5 1065 c5 997 6 1068 23 1093 41 63 29 62 502 67 l431 5 76 38 c89 44 161 116 205 205 26 53 28 65 28 182 0 118 -2 128 -29 185 -40 82 -128 167 -213 208 l-68 32 -535 2 c-294 0 -556 -3 -582 -7z"/>
 <path d="M335 3446 c-136 -33 -258 -137 -308 -262 -27 -65 -29 -79 -25 -175 3 -94 6 -111 35 -170 39 -78 116 -160 181 -193 107 -54 125 -56 549 -56 436 0 446 -1 483 -62 19 -32 20 -49 20 -613 1 -319 5 -611 9 -650 16 -138 103 -262 228 -328 240 -126 534 -3 615 256 17 55 18 110 18 780 0 824 0 819 -84 992 -114 235 -306 393 -565 467 -73 21 -98 22 -591 24 -387 2 -528 0 -565 -10z"/>
 <path d="M2874 3014 c-156 -42 -279 -173 -313 -332 -15 -70 -16 -2214 -1 -2292 25 -130 119 -254 239 -313 63 -31 71 -32 186 -32 110 0 125 2 179 28 119 55 199 146 236 266 19 61 20 96 20 1191 0 1079 -1 1131 -19 1189 -71 227 -302 357 -527 295z"/>
 <path d="M4200 1320 c-76 -9 -160 -52 -228 -115 -66 -61 -104 -125 -127 -210 -72 -279 158 -553 447 -533 310 22 500 348 362 622 -84 167 -262 259 -454 236z"/>
 </g>

</svg>
