<!DOCTYPE svg PUBLIC "-//W3C//DTD SVG 20010904//EN" "http://www.w3.org/TR/2001/REC-SVG-20010904/DTD/svg10.dtd">
<svg version="1.0" xmlns="http://www.w3.org/2000/svg" width="90px" height="90px" viewBox="0 0 900 900" preserveAspectRatio="xMidYMid meet">
<g id="layer101" fill="#23527c" stroke="none">
 <path d="M312 869 c-68 -16 -110 -67 -159 -189 -44 -114 -69 -203 -79 -291 -6 -54 -5 -58 27 -92 28 -30 48 -39 114 -54 l80 -19 31 -57 c46 -87 89 -127 136 -127 32 0 45 7 72 36 19 20 46 62 61 93 l27 57 71 17 c88 21 141 59 145 106 9 85 -85 386 -142 458 -16 19 -45 42 -65 50 -44 19 -256 27 -319 12z m-64 -516 c55 -6 67 -17 87 -82 l7 -24 -65 6 c-73 7 -131 27 -164 59 -45 42 4 57 135 41z m562 -3 c13 -9 10 -15 -17 -40 -36 -32 -116 -60 -175 -60 -36 0 -39 2 -33 23 18 59 30 72 70 78 65 10 139 9 155 -1z m-224 -36 c-4 -14 -14 -37 -23 -50 -14 -22 -21 -24 -107 -24 -100 0 -98 -1 -121 78 l-6 22 131 0 132 0 -6 -26z m-199 -141 c34 -52 41 -58 73 -58 31 0 39 6 68 50 63 94 92 86 42 -11 -39 -76 -70 -104 -116 -104 -26 0 -39 8 -67 42 -40 50 -79 123 -70 132 16 15 34 2 70 -51z m148 20 c-29 -46 -57 -73 -76 -73 -19 0 -79 66 -79 87 0 10 23 13 86 13 l86 0 -17 -27z"/>
 </g>

</svg>
